<?xml version="1.0"?>
<svg width="612.043" height="612.043" xmlns="http://www.w3.org/2000/svg" xmlns:svg="http://www.w3.org/2000/svg" enable-background="new 0 0 612.043 612.043" version="1.1" xml:space="preserve">
 <g class="layer">
  <title>Layer 1</title>
  <g id="svg_1">
   <g id="cross">
    <g id="svg_2">
     <path d="m397.5,306.01l195.58,-195.58c25.27,-25.26 25.27,-66.21 0,-91.48c-25.27,-25.27 -66.21,-25.27 -91.48,0l-195.58,195.6l-195.58,-195.58c-25.26,-25.27 -66.21,-25.27 -91.48,0s-25.27,66.22 0,91.49l195.58,195.57l-195.58,195.58c-25.27,25.27 -25.27,66.21 0,91.48c25.27,25.27 66.22,25.27 91.48,0l195.58,-195.58l195.58,195.58c25.27,25.27 66.21,25.27 91.48,0c25.27,-25.27 25.27,-66.21 0,-91.48l-195.58,-195.6z" fill="#ff0000" id="svg_3"/>
    </g>
   </g>
  </g>
  <g id="svg_4"/>
  <g id="svg_5"/>
  <g id="svg_6"/>
  <g id="svg_7"/>
  <g id="svg_8"/>
  <g id="svg_9"/>
  <g id="svg_10"/>
  <g id="svg_11"/>
  <g id="svg_12"/>
  <g id="svg_13"/>
  <g id="svg_14"/>
  <g id="svg_15"/>
  <g id="svg_16"/>
  <g id="svg_17"/>
  <g id="svg_18"/>
 </g>
</svg>