<?xml version="1.0"?>
<svg width="525.153" height="525.153" xmlns="http://www.w3.org/2000/svg" xmlns:svg="http://www.w3.org/2000/svg" enable-background="new 0 0 525.153 525.153" version="1.1" xml:space="preserve">
 <g class="layer">
  <title>Layer 1</title>
  <g id="svg_1">
   <path d="m258.08,78.17l0,-69.17l98.76,92.2l-98.76,92.24l0,-69.17c-81.73,0 -148.14,62 -148.14,138.31c0,23.3 6.13,45.45 17.28,64.53l-36.06,33.67c-19.26,-28.36 -30.61,-61.98 -30.61,-98.18c0,-101.89 88.39,-184.41 197.54,-184.43zm0,322.72c81.74,0 148.15,-62 148.15,-138.3c0,-23.29 -6.13,-45.44 -17.28,-64.54l36.06,-33.64c19.26,28.33 30.6,61.97 30.6,98.18c0,101.89 -88.36,184.41 -197.54,184.43l0,69.14l-98.75,-92.19l98.75,-92.23l0,69.15z" fill="#16bc03" id="svg_2" stroke="#16bc03" stroke-width="5"/>
  </g>
  <g id="svg_3"/>
  <g id="svg_4"/>
  <g id="svg_5"/>
  <g id="svg_6"/>
  <g id="svg_7"/>
  <g id="svg_8"/>
  <g id="svg_9"/>
  <g id="svg_10"/>
  <g id="svg_11"/>
  <g id="svg_12"/>
  <g id="svg_13"/>
  <g id="svg_14"/>
  <g id="svg_15"/>
  <g id="svg_16"/>
  <g id="svg_17"/>
 </g>

</svg>